<?xml version="1.0"?>
<svg class="" enable-background="new 0 0 512.007 512.007" height="512px"
     id="Capa_1" viewBox="0 0 512.007 512.007" width="512px" xmlns="http://www.w3.org/2000/svg">
  <g>
    <g>
      <path
        class="active-path"
        d="m88.097 480.432c1.864 8.075 9.921 13.105 17.989 11.242l150.995-34.851 146.035 34.802c8.056 1.92 16.148-3.057 18.069-11.114l90.41-379.376c1.92-8.058-3.056-16.148-11.114-18.069l-207.633-49.48c-.073-.1-3.638-15.223-18.135-11.874l-16.098 3.716-20.779-4.952c-15.924-3.792-18.709 13.981-18.776 14.081l-207.43 47.877c-8.072 1.863-13.105 9.917-11.242 17.989zm390.838-371.659-83.456 350.193-72.658-17.316 46.349-10.698c8.067-1.862 13.107-9.918 11.242-17.989l-11.722-50.787c17.636-22.568 31.571-52.709 39.331-85.246 19.514-81.817-3.655-155.079-52.746-166.787-14.139-3.372-28.901-1.352-43.414 5.816l-11.48-49.738zm-160.038 37.673c8.062-5.25 18.656-9.687 29.419-7.121 40.001 9.54 40.637 88.242 30.523 130.646-4.457 18.689-11.159 36.354-19.491 51.734zm-52.053-92.129 80.963 350.778-233.853 53.975-80.961-350.778c6.139-1.417 226.747-52.335 233.851-53.975z"
        data-old_color="#000000" data-original="#000000" fill="#FFFFFF"/>
      <path
        class="active-path"
        d="m199.357 329.454c5.192 1.648 10.901.354 14.88-3.435 49.315-46.957 49.201-86.368 44.743-105.681-6.476-28.059-29.618-49.611-56.217-43.471-12.063 2.784-20.837 9.749-26.816 17.208-8.643-4.083-19.583-6.498-31.646-3.714-26.733 6.171-37.92 35.801-31.478 63.711 4.458 19.313 21.627 54.788 86.534 75.382zm-48.309-109.861c6.9-1.593 14.217 1.616 18.857 6.324 7.449 8.531 21.991 5.916 25.45-5.95.033-.114 3.779-11.473 14.156-13.868 9.639-2.229 17.862 10.691 20.238 20.986 4.735 20.514-6.089 46.012-29.829 70.854-32.227-11.925-53.13-30.099-57.865-50.614-2.346-10.163-.65-25.507 8.993-27.732z"
        data-old_color="#000000" data-original="#000000" fill="#FFFFFF"/>
      <path
        class="active-path"
        d="m101.576 138.645c-1.863-8.072-9.916-13.106-17.989-11.242-8.072 1.863-13.105 9.917-11.242 17.989l6.747 29.232c1.86 8.06 9.905 13.108 17.989 11.242 8.072-1.863 13.105-9.917 11.242-17.989z"
        data-old_color="#000000" data-original="#000000" fill="#FFFFFF"/>
      <path
        class="active-path"
        d="m279.224 374.741c1.86 8.063 9.908 13.108 17.989 11.242 8.071-1.863 13.104-9.917 11.241-17.989l-6.746-29.231c-1.863-8.073-9.927-13.105-17.989-11.242-8.073 1.863-13.106 9.917-11.243 17.989z"
        data-old_color="#000000" data-original="#000000" fill="#FFFFFF"/>
    </g>
  </g>
</svg>
