<?xml version="1.0" encoding="UTF-8" standalone="no"?>
<svg class="card" face="2C" height="3.5in"
     preserveAspectRatio="none" viewBox="-120 -168 240 336" width="2.5in"
     xmlns="http://www.w3.org/2000/svg" xmlns:xlink="http://www.w3.org/1999/xlink">
  <symbol id="SC2" preserveAspectRatio="xMinYMid" viewBox="-600 -600 1200 1200">
    <path
      d="M30 150C35 385 85 400 130 500L-130 500C-85 400 -35 385 -30 150A10 10 0 0 0 -50 150A210 210 0 1 1 -124 -51A10 10 0 0 0 -110 -65A230 230 0 1 1 110 -65A10 10 0 0 0 124 -51A210 210 0 1 1 50 150A10 10 0 0 0 30 150Z"
      fill="green"></path>
  </symbol>
  <symbol id="VC2" preserveAspectRatio="xMinYMid" viewBox="-500 -500 1000 1000">
    <path
      d="M-225 -225C-245 -265 -200 -460 0 -460C 200 -460 225 -325 225 -225C225 -25 -225 160 -225 460L225 460L225 300"
      fill="none" stroke="green" stroke-linecap="square" stroke-miterlimit="1.5"
      stroke-width="80"></path>
  </symbol>
  <rect fill="white" height="335" rx="12" ry="12" stroke="black" width="239" x="-119.5"
        y="-167.5"></rect>
  <use height="32" x="-114.4" xlink:href="#VC2" y="-156"></use>
  <use height="26.769" x="-111.784" xlink:href="#SC2" y="-119"></use>
  <use height="70" x="-35" xlink:href="#SC2" y="-135.588"></use>
  <use height="70" x="-35" xlink:href="#SC2" y="65.588"></use>
  <g transform="rotate(180)">
    <use height="32" x="-114.4" xlink:href="#VC2" y="-156"></use>
    <use height="26.769" x="-111.784" xlink:href="#SC2" y="-119"></use>
  </g>
</svg>
