<?xml version="1.0" encoding="UTF-8" standalone="no"?>
<svg class="card" face="3H" height="3.5in"
     preserveAspectRatio="none" viewBox="-120 -168 240 336" width="2.5in"
     xmlns="http://www.w3.org/2000/svg" xmlns:xlink="http://www.w3.org/1999/xlink">
  <symbol id="SH3" preserveAspectRatio="xMinYMid" viewBox="-600 -600 1200 1200">
    <path
      d="M0 -300C0 -400 100 -500 200 -500C300 -500 400 -400 400 -250C400 0 0 400 0 500C0 400 -400 0 -400 -250C-400 -400 -300 -500 -200 -500C-100 -500 0 -400 -0 -300Z"
      fill="red"></path>
  </symbol>
  <symbol id="VH3" preserveAspectRatio="xMinYMid" viewBox="-500 -500 1000 1000">
    <path
      d="M-250 -320L-250 -460L200 -460L-110 -80C-100 -90 -50 -120 0 -120C200 -120 250 0 250 150C250 350 170 460 -30 460C-230 460 -260 300 -260 300"
      fill="none" stroke="red" stroke-linecap="square" stroke-miterlimit="1.5"
      stroke-width="80"></path>
  </symbol>
  <rect fill="white" height="335" rx="12" ry="12" stroke="black" width="239" x="-119.5"
        y="-167.5"></rect>
  <use height="32" x="-114.4" xlink:href="#VH3" y="-156"></use>
  <use height="26.769" x="-111.784" xlink:href="#SH3" y="-119"></use>
  <use height="70" x="-35" xlink:href="#SH3" y="-135.501"></use>
  <use height="70" x="-35" xlink:href="#SH3" y="-35"></use>
  <use height="70" x="-35" xlink:href="#SH3" y="65.501"></use>
  <g transform="rotate(180)">
    <use height="32" x="-114.4" xlink:href="#VH3" y="-156"></use>
    <use height="26.769" x="-111.784" xlink:href="#SH3" y="-119"></use>
  </g>
</svg>
