<?xml version="1.0" encoding="UTF-8" standalone="no"?>
<svg class="card" face="5S" height="3.5in"
     preserveAspectRatio="none" viewBox="-120 -168 240 336" width="2.5in"
     xmlns="http://www.w3.org/2000/svg" xmlns:xlink="http://www.w3.org/1999/xlink">
  <symbol id="SS5" preserveAspectRatio="xMinYMid" viewBox="-600 -600 1200 1200">
    <path
      d="M0 -500C100 -250 355 -100 355 185A150 150 0 0 1 55 185A10 10 0 0 0 35 185C35 385 85 400 130 500L-130 500C-85 400 -35 385 -35 185A10 10 0 0 0 -55 185A150 150 0 0 1 -355 185C-355 -100 -100 -250 0 -500Z"
      fill="black"></path>
  </symbol>
  <symbol id="VS5" preserveAspectRatio="xMinYMid" viewBox="-500 -500 1000 1000">
    <path
      d="M170 -460L-175 -460L-210 -115C-210 -115 -200 -200 0 -200C100 -200 255 -80 255 120C255 320 180 460 -20 460C-220 460 -255 285 -255 285"
      fill="none" stroke="black" stroke-linecap="square" stroke-miterlimit="1.5"
      stroke-width="80"></path>
  </symbol>
  <rect fill="white" height="335" rx="12" ry="12" stroke="black" width="239" x="-119.5"
        y="-167.5"></rect>
  <use height="32" x="-114.4" xlink:href="#VS5" y="-156"></use>
  <use height="26.769" x="-111.784" xlink:href="#SS5" y="-119"></use>
  <use height="70" x="-87.501" xlink:href="#SS5" y="-135.501"></use>
  <use height="70" x="17.501" xlink:href="#SS5" y="-135.501"></use>
  <use height="70" x="-35" xlink:href="#SS5" y="-35"></use>
  <use height="70" x="-87.501" xlink:href="#SS5" y="65.501"></use>
  <use height="70" x="17.501" xlink:href="#SS5" y="65.501"></use>
  <g transform="rotate(180)">
    <use height="32" x="-114.4" xlink:href="#VS5" y="-156"></use>
    <use height="26.769" x="-111.784" xlink:href="#SS5" y="-119"></use>
  </g>
</svg>
