<?xml version="1.0" encoding="UTF-8" standalone="no"?>
<svg class="card" face="8H" height="3.5in"
     preserveAspectRatio="none" viewBox="-120 -168 240 336" width="2.5in"
     xmlns="http://www.w3.org/2000/svg" xmlns:xlink="http://www.w3.org/1999/xlink">
  <symbol id="SH8" preserveAspectRatio="xMinYMid" viewBox="-600 -600 1200 1200">
    <path
      d="M0 -300C0 -400 100 -500 200 -500C300 -500 400 -400 400 -250C400 0 0 400 0 500C0 400 -400 0 -400 -250C-400 -400 -300 -500 -200 -500C-100 -500 0 -400 -0 -300Z"
      fill="red"></path>
  </symbol>
  <symbol id="VH8" preserveAspectRatio="xMinYMid" viewBox="-500 -500 1000 1000">
    <path d="M-1 -50A205 205 0 1 1 1 -50L-1 -50A255 255 0 1 0 1 -50Z" fill="none" stroke="red"
          stroke-linecap="square" stroke-miterlimit="1.5" stroke-width="80"></path>
  </symbol>
  <rect fill="white" height="335" rx="12" ry="12" stroke="black" width="239" x="-119.5"
        y="-167.5"></rect>
  <use height="32" x="-114.4" xlink:href="#VH8" y="-156"></use>
  <use height="26.769" x="-111.784" xlink:href="#SH8" y="-119"></use>
  <use height="70" x="-87.501" xlink:href="#SH8" y="-135.501"></use>
  <use height="70" x="17.501" xlink:href="#SH8" y="-135.501"></use>
  <use height="70" x="-35" xlink:href="#SH8" y="-85.25"></use>
  <use height="70" x="-87.501" xlink:href="#SH8" y="-35"></use>
  <use height="70" x="17.501" xlink:href="#SH8" y="-35"></use>
  <use height="70" x="-87.501" xlink:href="#SH8" y="65.501"></use>
  <use height="70" x="17.501" xlink:href="#SH8" y="65.501"></use>
  <use height="70" x="-35" xlink:href="#SH8" y="15.25"></use>
  <g transform="rotate(180)">
    <use height="32" x="-114.4" xlink:href="#VH8" y="-156"></use>
    <use height="26.769" x="-111.784" xlink:href="#SH8" y="-119"></use>
  </g>
</svg>
