<?xml version="1.0" encoding="UTF-8" standalone="no"?>
<svg class="card" face="AC" height="3.5in"
     preserveAspectRatio="none" viewBox="-120 -168 240 336" width="2.5in"
     xmlns="http://www.w3.org/2000/svg" xmlns:xlink="http://www.w3.org/1999/xlink">
  <symbol id="VCA" preserveAspectRatio="xMinYMid" viewBox="-500 -500 1000 1000">
    <path d="M-270 460L-110 460M-200 450L0 -460L200 450M110 460L270 460M-120 130L120 130"
          fill="none" stroke="green" stroke-linecap="square" stroke-miterlimit="1.5"
          stroke-width="80"></path>
  </symbol>
  <symbol id="SCA" preserveAspectRatio="xMinYMid" viewBox="-600 -600 1200 1200">
    <path
      d="M30 150C35 385 85 400 130 500L-130 500C-85 400 -35 385 -30 150A10 10 0 0 0 -50 150A210 210 0 1 1 -124 -51A10 10 0 0 0 -110 -65A230 230 0 1 1 110 -65A10 10 0 0 0 124 -51A210 210 0 1 1 50 150A10 10 0 0 0 30 150Z"
      fill="green"></path>
  </symbol>
  <rect fill="white" height="335" rx="12" ry="12" stroke="black" width="239" x="-119.5"
        y="-167.5"></rect>
  <use height="70" x="-35" xlink:href="#SCA" y="-35"></use>
  <use height="32" x="-114.4" xlink:href="#VCA" y="-156"></use>
  <use height="26.769" x="-111.784" xlink:href="#SCA" y="-119"></use>
  <g transform="rotate(180)">
    <use height="32" x="-114.4" xlink:href="#VCA" y="-156"></use>
    <use height="26.769" x="-111.784" xlink:href="#SCA" y="-119"></use>
  </g>
</svg>
