<?xml version="1.0" encoding="UTF-8" standalone="no"?>
<svg class="card" face="AD" height="3.5in"
     preserveAspectRatio="none" viewBox="-120 -168 240 336" width="2.5in"
     xmlns="http://www.w3.org/2000/svg" xmlns:xlink="http://www.w3.org/1999/xlink">
  <symbol id="VDA" preserveAspectRatio="xMinYMid" viewBox="-500 -500 1000 1000">
    <path d="M-270 460L-110 460M-200 450L0 -460L200 450M110 460L270 460M-120 130L120 130"
          fill="none" stroke="blue" stroke-linecap="square" stroke-miterlimit="1.5"
          stroke-width="80"></path>
  </symbol>
  <symbol id="SDA" preserveAspectRatio="xMinYMid" viewBox="-600 -600 1200 1200">
    <path d="M-400 0C-350 0 0 -450 0 -500C0 -450 350 0 400 0C350 0 0 450 0 500C0 450 -350 0 -400 0Z"
          fill="blue"></path>
  </symbol>
  <rect fill="white" height="335" rx="12" ry="12" stroke="black" width="239" x="-119.5"
        y="-167.5"></rect>
  <use height="70" x="-35" xlink:href="#SDA" y="-35"></use>
  <use height="32" x="-114.4" xlink:href="#VDA" y="-156"></use>
  <use height="26.769" x="-111.784" xlink:href="#SDA" y="-119"></use>
  <g transform="rotate(180)">
    <use height="32" x="-114.4" xlink:href="#VDA" y="-156"></use>
    <use height="26.769" x="-111.784" xlink:href="#SDA" y="-119"></use>
  </g>
</svg>
