<?xml version="1.0" encoding="UTF-8" standalone="no"?>
<svg class="card" face="TD" height="3.5in"
     preserveAspectRatio="none" viewBox="-120 -168 240 336" width="2.5in"
     xmlns="http://www.w3.org/2000/svg" xmlns:xlink="http://www.w3.org/1999/xlink">
  <symbol id="SDT" preserveAspectRatio="xMinYMid" viewBox="-600 -600 1200 1200">
    <path d="M-400 0C-350 0 0 -450 0 -500C0 -450 350 0 400 0C350 0 0 450 0 500C0 450 -350 0 -400 0Z"
          fill="blue"></path>
  </symbol>
  <symbol id="VDT" preserveAspectRatio="xMinYMid" viewBox="-500 -500 1000 1000">
    <path
      d="M-260 430L-260 -430M-50 0L-50 -310A150 150 0 0 1 250 -310L250 310A150 150 0 0 1 -50 310Z"
      fill="none" stroke="blue" stroke-linecap="square" stroke-miterlimit="1.5"
      stroke-width="80"></path>
  </symbol>
  <rect fill="white" height="335" rx="12" ry="12" stroke="black" width="239" x="-119.5"
        y="-167.5"></rect>
  <use height="32" x="-114.4" xlink:href="#VDT" y="-156"></use>
  <use height="26.769" x="-111.784" xlink:href="#SDT" y="-119"></use>
  <use height="70" x="-87.501" xlink:href="#SDT" y="-135.501"></use>
  <use height="70" x="17.501" xlink:href="#SDT" y="-135.501"></use>
  <use height="70" x="-87.501" xlink:href="#SDT" y="-68.5"></use>
  <use height="70" x="17.501" xlink:href="#SDT" y="-68.5"></use>
  <use height="70" x="-35" xlink:href="#SDT" y="-102"></use>
  <use height="70" x="-87.501" xlink:href="#SDT" y="65.501"></use>
  <use height="70" x="17.501" xlink:href="#SDT" y="65.501"></use>
  <use height="70" x="-87.501" xlink:href="#SDT" y="-1.5"></use>
  <use height="70" x="17.501" xlink:href="#SDT" y="-1.5"></use>
  <use height="70" x="-35" xlink:href="#SDT" y="32"></use>
  <g transform="rotate(180)">
    <use height="32" x="-114.4" xlink:href="#VDT" y="-156"></use>
    <use height="26.769" x="-111.784" xlink:href="#SDT" y="-119"></use>
  </g>
</svg>
